<svg version="1.1" xmlns="http://www.w3.org/2000/svg" xmlns:xlink="http://www.w3.org/1999/xlink" x="0px" y="0px"
	 viewBox="0 0 1190.55 841.89" style="enable-background:new 0 0 1190.55 841.89;" xml:space="preserve">
<style type="text/css">
	.st0{fill:#FDB927;}
	.st1{fill:#141006;}
</style>
<g id="Information">
</g>
<g id="Reduced_logo">
</g>
<g id="Standard_Logo">
	<g>
		<path class="st0" d="M644.08,388.36c0,39.15-31.73,70.88-70.88,70.88c-39.16,0-70.89-31.74-70.89-70.88
			c0-39.15,31.74-70.89,70.89-70.89C612.36,317.47,644.08,349.2,644.08,388.36z"/>
		<g>
			<g>
				<path class="st1" d="M519.48,434.6c13,15.08,32.25,24.63,53.73,24.63c21.46,0,40.7-9.54,53.7-24.6
					c-4.5,0.63-18.82,2.11-53.66,2.11C537.42,436.75,523.57,435.21,519.48,434.6z"/>
			</g>
			<g>
				<path class="st1" d="M642.32,404.16c1.16-5.08,1.76-10.37,1.76-15.8c0-6.19-0.78-12.19-2.27-17.92
					c-7.03-0.16-29.1-0.61-68.27-0.61c-39.59,0-62.05,0.45-68.94,0.62c-1.5,5.71-2.29,11.71-2.29,17.9c0,5.5,0.63,10.86,1.82,16
					c8.41,0.14,41.53,0.64,70.01,0.64C603.04,405,634.92,404.32,642.32,404.16z"/>
			</g>
			<g>
				<path class="st1" d="M626.3,341.4c-12.98-14.68-31.96-23.93-53.09-23.93c-21.16,0-40.15,9.28-53.14,23.97
					c4.78-0.65,19.06-2.06,53.01-2.06C606.8,339.38,621.23,340.73,626.3,341.4z"/>
			</g>
		</g>
		<path class="st1" d="M644.06,388.36c0,39.14-31.72,70.86-70.86,70.86c-39.15,0-70.88-31.73-70.88-70.86
			c0-39.14,31.73-70.87,70.88-70.87C612.34,317.49,644.06,349.22,644.06,388.36z M573.21,315.47c-40.26,0-72.89,32.63-72.89,72.88
			c0,40.25,32.63,72.88,72.89,72.88c40.25,0,72.87-32.63,72.87-72.88C646.08,348.1,613.46,315.47,573.21,315.47z"/>
	</g>
</g>
</svg>
