<?xml version="1.0" encoding="utf-8"?>
<!-- Generator: Adobe Illustrator 24.2.1, SVG Export Plug-In . SVG Version: 6.00 Build 0)  -->
<svg version="1.1" id="Слой_1" xmlns="http://www.w3.org/2000/svg" xmlns:xlink="http://www.w3.org/1999/xlink" x="0px" y="0px"
	 viewBox="0 0 1920 1080" style="enable-background:new 0 0 1920 1080;" xml:space="preserve">
<style type="text/css">
	.st0{fill-rule:evenodd;clip-rule:evenodd;fill:#FFFFFF;}
	.st1{fill-rule:evenodd;clip-rule:evenodd;fill:#0DB14B;}
	.st2{fill-rule:evenodd;clip-rule:evenodd;fill:#26247B;}
</style>
<g>
	<path class="st0" d="M882.54,738.15c-21.15,5.06-43.63,1.5-64.13-4.74c-22.3-6.79-43.58-17.03-63.69-28.74
		c-14.41-8.39-29.26-17.31-41.58-28.78v80.87H905.9v-29.32C899.09,732.33,891.38,736.03,882.54,738.15z"/>
	<path class="st1" d="M547.52,405.4c-29.5,0-53.41,23.91-53.41,53.41c0,26.24,18.93,48.05,43.88,52.55V464.4
		c0-2.2,1.8-4.01,4.01-4.01h7.12c0.21,0,0.38-0.17,0.38-0.38v-54.56C548.83,405.42,548.18,405.4,547.52,405.4L547.52,405.4z
		 M537.25,451.21c-3.48,0-6.3-2.82-6.3-6.3c0-3.48,2.82-6.29,6.3-6.29s6.3,2.82,6.3,6.29C543.54,448.39,540.73,451.21,537.25,451.21
		L537.25,451.21z"/>
	<path class="st2" d="M555.83,406.05v56.49c0,2.2-1.8,4.01-4.01,4.01h-7.12c-0.21,0-0.38,0.17-0.38,0.38v45.2
		c1.06,0.06,2.12,0.1,3.19,0.1c29.5,0,53.41-23.91,53.41-53.41C600.93,432.14,581.38,410.04,555.83,406.05L555.83,406.05z
		 M555.49,486.24c-3.11,0-5.63-2.52-5.63-5.63c0-3.11,2.52-5.63,5.63-5.63c3.11,0,5.63,2.52,5.63,5.63
		C561.12,483.72,558.6,486.24,555.49,486.24L555.49,486.24z M570.38,486.24c-3.11,0-5.63-2.52-5.63-5.63c0-3.11,2.52-5.63,5.63-5.63
		s5.63,2.52,5.63,5.63C576,483.72,573.48,486.24,570.38,486.24L570.38,486.24z M585.26,486.24c-3.11,0-5.63-2.52-5.63-5.63
		c0-3.11,2.52-5.63,5.63-5.63s5.63,2.52,5.63,5.63C590.89,483.72,588.37,486.24,585.26,486.24L585.26,486.24z"/>
</g>
</svg>
