<svg version="1.1" id="Layer_1" xmlns="http://www.w3.org/2000/svg" xmlns:xlink="http://www.w3.org/1999/xlink" x="0px" y="0px"
	 viewBox="0 0 595.28 841.89" style="enable-background:new 0 0 595.28 841.89;" xml:space="preserve">
<style type="text/css">
	.st0{fill:#ED1C24;}
	.st1{fill:#FFFFFF;}
</style>
<g>
	<polygon class="st0" points="183.31,549.47 346.54,549.47 346.54,386.26 183.31,386.26 183.31,549.47 	"/>
	<path class="st1" d="M264.92,403.02c23.2,0,47.98,41.47,47.98,77.38c0,28.21-16.58,52.27-47.98,52.27
		c-31.43,0-47.96-24.06-47.96-52.27C216.96,444.49,241.73,403.02,264.92,403.02"/>
	<polygon class="st1" points="370.07,448.59 387.26,448.59 392.87,471.64 392.96,471.64 398.58,448.59 415.75,448.59 415.75,487.77 
		404.33,487.77 404.33,462.62 404.21,462.62 397.42,487.77 388.41,487.77 381.6,462.62 381.5,462.62 381.5,487.77 370.07,487.77 
		370.07,448.59 	"/>
	<polygon class="st1" points="433.31,458.63 422.34,458.63 422.34,448.59 456.38,448.59 456.38,458.63 445.38,458.63 445.38,487.77 
		433.31,487.77 433.31,458.63 	"/>
	<path class="st1" d="M485.53,463.17c-0.22-1.41-1.33-5.76-6.3-5.76c-5.67,0-7.48,5.49-7.48,10.78c0,5.27,1.82,10.75,7.48,10.75
		c4.04,0,5.65-2.85,6.35-6.55h11.86c0,7.91-6.43,16.32-17.9,16.32c-12.69,0-19.86-8.95-19.86-20.52c0-12.36,7.79-20.53,19.86-20.53
		c10.77,0.04,16.7,5.69,17.72,15.51H485.53L485.53,463.17z"/>
</g>
</svg>
